#!OML:ASF X:\für Bonn\!DataBase\2005_08_12_Daniel\c3d\Daniel.ASF
:FULLY-SPECIFIED
:DEGREES
1
root 0.0537668 16.9784 -1.61245 16.1817 -86.7622 -28.3094
lowerback 25.1631 -2.24466 7.73146
upperback -0.811917 -1.11134 -2.53835
thorax -14.7215 -1.2206 -6.64409
lowerneck 6.57323 1.17959 -2.2384
upperneck 6.17697 1.24179 1.3921
head 0.789591 0.513582 0.778061
rclavicle -4.22417e-015 7.55382e-015
rhumerus 52.9409 3.42578 -92.3059
rradius 7.09669
rwrist 53.8752
rhand -17.6301 4.66284
rfingers 7.12502
rthumb 8.62729 -25.1409
lclavicle -4.22417e-015 7.55382e-015
lhumerus 52.7186 3.3825 92.0538
lradius 11.3723
lwrist -64.7867
lhand -14.8695 -0.652613
lfingers 7.12502
lthumb 11.2906 29.0235
rfemur 8.02354 11.7362 24.4483
rtibia 25.1527
rfoot -34.9458 -12.9896
rtoes -14.995
lfemur -9.55349 -6.71137 -11.4791
ltibia 42.3746
lfoot -33.3152 4.2396
ltoes -1.04822
2
root 0.050327 16.9739 -1.61283 17.5127 -87.0045 -29.695
lowerback 25.1835 -2.15544 7.75945
upperback -0.858423 -0.985042 -2.56363
thorax -14.7655 -1.17044 -6.73557
lowerneck 6.89677 1.19249 -2.35204
upperneck 5.89075 1.24354 1.55161
head 0.647132 0.513517 0.843375
rclavicle 6.21202e-015 -1.03368e-014
rhumerus 53.1613 3.41668 -92.3074
rradius 6.84311
rwrist 53.6517
rhand -17.6494 4.67543
rfingers 7.12502
rthumb 8.60867 -25.1291
lclavicle 6.21202e-015 -1.03368e-014
lhumerus 52.8423 3.80646 92.6988
lradius 11.1981
lwrist -65.4348
lhand -15.1213 -0.519134
lfingers 7.12502
lthumb 11.0477 29.1701
rfemur 7.7872 10.9892 24.0732
rtibia 25.3723
rfoot -33.9205 -12.5008
rtoes -15.0788
lfemur -9.44427 -6.36263 -11.4629
ltibia 42.4483
lfoot -33.217 4.21048
ltoes -0.905402
3
root 0.0468129 16.9673 -1.61365 18.5587 -87.2188 -30.8049
lowerback 25.2455 -2.06886 7.71322
upperback -0.911688 -0.876319 -2.55711
thorax -14.839 -1.12256 -6.74388
lowerneck 7.21946 1.20817 -2.43342
upperneck 5.63813 1.25112 1.66928
head 0.515524 0.516034 0.89087
rclavicle -1.76173e-014 1.59028e-015
rhumerus 53.2672 3.43389 -92.2794
rradius 6.68642
rwrist 53.4274
rhand -17.6153 4.67827
rfingers 7.12502
rthumb 8.64161 -25.1249
lclavicle -1.76173e-014 1.59028e-015
lhumerus 52.9288 4.22333 93.3161
lradius 10.9973
lwrist -66.0754
lhand -15.4632 -0.380135
lfingers 7.12502
lthumb 10.718 29.3265
rfemur 7.51118 10.2412 23.6939
rtibia 25.6968
rfoot -33.0032 -11.9682
rtoes -15.25
lfemur -9.35249 -6.05208 -11.4624
ltibia 42.5478
lfoot -33.0216 4.05833
ltoes -0.40275
4
root 0.0436349 16.9582 -1.61411 18.5131 -87.4351 -30.8196
lowerback 25.3125 -1.98013 7.59963
upperback -0.936934 -0.788798 -2.56539
thorax -14.886 -1.07797 -6.72271
lowerneck 7.47295 1.22519 -2.48587
upperneck 5.37904 1.26627 1.76523
head 0.393141 0.523531 0.927363
rclavicle 7.00716e-015 -1.15295e-014
rhumerus 53.3349 3.42462 -92.2373
rradius 6.61917
rwrist 53.1398
rhand -17.5866 4.76471
rfingers 7.12502
rthumb 8.66929 -25.0373
lclavicle 7.00716e-015 -1.15295e-014
lhumerus 53.0546 4.70511 94.0156
lradius 10.7841
lwrist -66.9062
lhand -15.7307 -0.23568
lfingers 7.12502
lthumb 10.4599 29.4841
rfemur 7.16787 9.39284 23.2232
rtibia 26.1394
rfoot -32.1155 -11.2991
rtoes -15.3629
lfemur -9.29312 -5.74802 -11.5285
ltibia 42.6823
lfoot -32.7952 3.86924
ltoes 0.14836
5
root 0.0404394 16.9466 -1.61393 18.3226 -87.6169 -30.7068
lowerback 25.4259 -1.90665 7.49353
upperback -0.977467 -0.714852 -2.57051
thorax -14.9769 -1.04218 -6.6975
lowerneck 7.75486 1.24023 -2.53269
upperneck 5.15186 1.27651 1.88368
head 0.275665 0.527544 0.970432
rclavicle 4.4975e-015 1.98785e-015
rhumerus 53.2903 3.43126 -92.2197
rradius 6.61152
rwrist 52.8951
rhand -17.5533 4.81045
rfingers 7.12502
rthumb 8.70144 -24.9902
lclavicle 4.4975e-015 1.98785e-015
lhumerus 53.1379 5.2737 94.8453
lradius 10.5467
lwrist -67.9485
lhand -15.9533 -0.129262
lfingers 7.12502
lthumb 10.2452 29.6012
rfemur 6.79508 8.48422 22.7501
rtibia 26.6846
rfoot -31.3643 -10.5428
rtoes -15.5346
lfemur -9.24813 -5.46649 -11.5932
ltibia 42.8564
lfoot -32.523 3.68347
ltoes 0.85149
6
root 0.0377537 16.9311 -1.61367 17.1639 -87.7839 -29.6161
lowerback 25.5152 -1.83758 7.34792
upperback -0.985829 -0.663788 -2.58353
thorax -15.0221 -1.01115 -6.64989
lowerneck 7.98288 1.26055 -2.58737
upperneck 4.91563 1.29589 2.01519
head 0.163332 0.536437 1.01933
rclavicle -7.25564e-015 1.39149e-014
rhumerus 53.1953 3.41541 -92.1893
rradius 6.70749
rwrist 52.5919
rhand -17.5529 4.89228
rfingers 7.12502
rthumb 8.70178 -24.9084
lclavicle -7.25564e-015 1.39149e-014
lhumerus 53.2713 5.84726 95.6745
lradius 10.3116
lwrist -69.0926
lhand -16.1053 0.0151535
lfingers 7.12502
lthumb 10.0986 29.7528
rfemur 6.37122 7.61808 22.2635
rtibia 27.3427
rfoot -30.7946 -9.72734
rtoes -15.722
lfemur -9.23781 -5.20182 -11.6886
ltibia 43.076
lfoot -32.2584 3.45406
ltoes 1.60444
7
root 0.0360001 16.9118 -1.61244 15.0006 -87.9433 -27.5794
lowerback 25.6834 -1.77107 7.17055
upperback -0.977087 -0.621238 -2.59181
thorax -15.0878 -0.981771 -6.57541
lowerneck 8.18883 1.27729 -2.65744
upperneck 4.69937 1.30977 2.1481
head 0.0603024 0.542048 1.07188
rclavicle -6.70898e-015 3.06128e-014
rhumerus 53.0366 3.40806 -92.1463
rradius 6.83171
rwrist 52.3758
rhand -17.57 5.02711
rfingers 7.12502
rthumb 8.68529 -24.7742
lclavicle -6.70898e-015 3.06128e-014
lhumerus 53.4798 6.66834 96.9406
lradius 10.0544
lwrist -70.7747
lhand -16.1279 0.104794
lfingers 7.12502
lthumb 10.0768 29.8435
rfemur 5.9602 6.75886 21.7595
rtibia 28.102
rfoot -30.3261 -8.87161
rtoes -15.8459
lfemur -9.17537 -4.96553 -11.8239
ltibia 43.3396
lfoot -31.9709 3.09905
ltoes 2.43974
